<svg version="1.1" xmlns="http://www.w3.org/2000/svg" xmlns:xlink="http://www.w3.org/1999/xlink" width="183.85564" height="209.09202" viewBox="0,0,183.85564,209.09202"><defs><linearGradient x1="240.33095" y1="97.16757" x2="240.33095" y2="197.82066" gradientUnits="userSpaceOnUse" id="color-1"><stop offset="0" stop-color="#000000"/><stop offset="1" stop-color="#000000" stop-opacity="0.64852"/></linearGradient><linearGradient x1="243.73684" y1="290.04552" x2="234.21811" y2="263.14312" gradientUnits="userSpaceOnUse" id="color-2"><stop offset="0" stop-color="#1a0000"/><stop offset="1" stop-color="#ffffff"/></linearGradient><linearGradient x1="249.78682" y1="282.77522" x2="240.26809" y2="255.87283" gradientUnits="userSpaceOnUse" id="color-3"><stop offset="0" stop-color="#1a0000"/><stop offset="1" stop-color="#ffffff"/></linearGradient><linearGradient x1="255.06954" y1="275.31071" x2="245.55081" y2="248.40831" gradientUnits="userSpaceOnUse" id="color-4"><stop offset="0" stop-color="#1a0000"/><stop offset="1" stop-color="#ffffff"/></linearGradient><linearGradient x1="260.45092" y1="269.44123" x2="250.93219" y2="242.53883" gradientUnits="userSpaceOnUse" id="color-5"><stop offset="0" stop-color="#1a0000"/><stop offset="1" stop-color="#ffffff"/></linearGradient><linearGradient x1="266.09974" y1="263.01142" x2="256.58101" y2="236.10902" gradientUnits="userSpaceOnUse" id="color-6"><stop offset="0" stop-color="#1a0000"/><stop offset="1" stop-color="#ffffff"/></linearGradient><linearGradient x1="271.54163" y1="256.65483" x2="262.0229" y2="229.75244" gradientUnits="userSpaceOnUse" id="color-7"><stop offset="0" stop-color="#1a0000"/><stop offset="1" stop-color="#ffffff"/></linearGradient><linearGradient x1="277.78894" y1="252.5746" x2="268.27021" y2="225.6722" gradientUnits="userSpaceOnUse" id="color-8"><stop offset="0" stop-color="#1a0000"/><stop offset="1" stop-color="#ffffff"/></linearGradient><linearGradient x1="283.95031" y1="247.59339" x2="274.43158" y2="220.69099" gradientUnits="userSpaceOnUse" id="color-9"><stop offset="0" stop-color="#1a0000"/><stop offset="1" stop-color="#ffffff"/></linearGradient><linearGradient x1="290.33134" y1="243.233" x2="280.81261" y2="216.3306" gradientUnits="userSpaceOnUse" id="color-10"><stop offset="0" stop-color="#1a0000"/><stop offset="1" stop-color="#ffffff"/></linearGradient><radialGradient cx="276.22299" cy="157.18881" r="22.94234" gradientUnits="userSpaceOnUse" id="color-11"><stop offset="0" stop-color="#ffffff"/><stop offset="1" stop-color="#000000"/></radialGradient><linearGradient x1="234.10106" y1="296.92906" x2="243.61979" y2="270.02666" gradientUnits="userSpaceOnUse" id="color-12"><stop offset="0" stop-color="#1a0000"/><stop offset="1" stop-color="#ffffff"/></linearGradient><linearGradient x1="228.05108" y1="289.65877" x2="237.5698" y2="262.75637" gradientUnits="userSpaceOnUse" id="color-13"><stop offset="0" stop-color="#1a0000"/><stop offset="1" stop-color="#ffffff"/></linearGradient><linearGradient x1="222.76836" y1="282.19425" x2="232.28709" y2="255.29186" gradientUnits="userSpaceOnUse" id="color-14"><stop offset="0" stop-color="#1a0000"/><stop offset="1" stop-color="#ffffff"/></linearGradient><linearGradient x1="217.38697" y1="276.32477" x2="226.9057" y2="249.42238" gradientUnits="userSpaceOnUse" id="color-15"><stop offset="0" stop-color="#1a0000"/><stop offset="1" stop-color="#ffffff"/></linearGradient><linearGradient x1="211.73815" y1="269.89496" x2="221.25688" y2="242.99257" gradientUnits="userSpaceOnUse" id="color-16"><stop offset="0" stop-color="#1a0000"/><stop offset="1" stop-color="#ffffff"/></linearGradient><linearGradient x1="206.29627" y1="263.53837" x2="215.815" y2="236.63598" gradientUnits="userSpaceOnUse" id="color-17"><stop offset="0" stop-color="#1a0000"/><stop offset="1" stop-color="#ffffff"/></linearGradient><linearGradient x1="200.04896" y1="259.45815" x2="209.56768" y2="232.55575" gradientUnits="userSpaceOnUse" id="color-18"><stop offset="0" stop-color="#1a0000"/><stop offset="1" stop-color="#ffffff"/></linearGradient><linearGradient x1="193.88759" y1="254.47693" x2="203.40631" y2="227.57453" gradientUnits="userSpaceOnUse" id="color-19"><stop offset="0" stop-color="#1a0000"/><stop offset="1" stop-color="#ffffff"/></linearGradient><linearGradient x1="187.50655" y1="250.11654" x2="197.02528" y2="223.21414" gradientUnits="userSpaceOnUse" id="color-20"><stop offset="0" stop-color="#1a0000"/><stop offset="1" stop-color="#ffffff"/></linearGradient><radialGradient cx="205.39917" cy="157.0277" r="22.94233" gradientUnits="userSpaceOnUse" id="color-21"><stop offset="0" stop-color="#ffffff"/><stop offset="1" stop-color="#000000"/></radialGradient><linearGradient x1="176.64073" y1="197.93645" x2="176.64073" y2="224.98597" gradientUnits="userSpaceOnUse" id="color-22"><stop offset="0" stop-color="#1a1a1a"/><stop offset="1" stop-color="#ffffff"/></linearGradient><linearGradient x1="184.34568" y1="202.52031" x2="184.34568" y2="229.56983" gradientUnits="userSpaceOnUse" id="color-23"><stop offset="0" stop-color="#1a1a1a"/><stop offset="1" stop-color="#ffffff"/></linearGradient><linearGradient x1="191.42641" y1="207.52031" x2="191.42641" y2="234.56983" gradientUnits="userSpaceOnUse" id="color-24"><stop offset="0" stop-color="#1a1a1a"/><stop offset="1" stop-color="#ffffff"/></linearGradient><linearGradient x1="198.09099" y1="211.06379" x2="198.09099" y2="238.11331" gradientUnits="userSpaceOnUse" id="color-25"><stop offset="0" stop-color="#1a1a1a"/><stop offset="1" stop-color="#ffffff"/></linearGradient><linearGradient x1="205.17172" y1="215.02343" x2="205.17172" y2="242.07295" gradientUnits="userSpaceOnUse" id="color-26"><stop offset="0" stop-color="#1a1a1a"/><stop offset="1" stop-color="#ffffff"/></linearGradient><linearGradient x1="212.04438" y1="218.98306" x2="212.04438" y2="246.03258" gradientUnits="userSpaceOnUse" id="color-27"><stop offset="0" stop-color="#1a1a1a"/><stop offset="1" stop-color="#ffffff"/></linearGradient><linearGradient x1="218.91704" y1="220.65389" x2="218.91704" y2="247.70341" gradientUnits="userSpaceOnUse" id="color-28"><stop offset="0" stop-color="#1a1a1a"/><stop offset="1" stop-color="#ffffff"/></linearGradient><linearGradient x1="225.99777" y1="223.15701" x2="225.99777" y2="250.20653" gradientUnits="userSpaceOnUse" id="color-29"><stop offset="0" stop-color="#1a1a1a"/><stop offset="1" stop-color="#ffffff"/></linearGradient><linearGradient x1="233.0785" y1="225.03591" x2="233.0785" y2="252.08543" gradientUnits="userSpaceOnUse" id="color-30"><stop offset="0" stop-color="#1a1a1a"/><stop offset="1" stop-color="#ffffff"/></linearGradient><linearGradient x1="297.0793" y1="198.15077" x2="297.0793" y2="225.20029" gradientUnits="userSpaceOnUse" id="color-31"><stop offset="0" stop-color="#1a1a1a"/><stop offset="1" stop-color="#ffffff"/></linearGradient><linearGradient x1="289.37435" y1="202.73462" x2="289.37435" y2="229.78414" gradientUnits="userSpaceOnUse" id="color-32"><stop offset="0" stop-color="#1a1a1a"/><stop offset="1" stop-color="#ffffff"/></linearGradient><linearGradient x1="282.29363" y1="207.73462" x2="282.29363" y2="234.78414" gradientUnits="userSpaceOnUse" id="color-33"><stop offset="0" stop-color="#1a1a1a"/><stop offset="1" stop-color="#ffffff"/></linearGradient><linearGradient x1="275.62904" y1="211.27811" x2="275.62904" y2="238.32763" gradientUnits="userSpaceOnUse" id="color-34"><stop offset="0" stop-color="#1a1a1a"/><stop offset="1" stop-color="#ffffff"/></linearGradient><linearGradient x1="268.54831" y1="215.23774" x2="268.54831" y2="242.28726" gradientUnits="userSpaceOnUse" id="color-35"><stop offset="0" stop-color="#1a1a1a"/><stop offset="1" stop-color="#ffffff"/></linearGradient><linearGradient x1="261.67565" y1="219.19738" x2="261.67565" y2="246.2469" gradientUnits="userSpaceOnUse" id="color-36"><stop offset="0" stop-color="#1a1a1a"/><stop offset="1" stop-color="#ffffff"/></linearGradient><linearGradient x1="254.80299" y1="220.86821" x2="254.80299" y2="247.91773" gradientUnits="userSpaceOnUse" id="color-37"><stop offset="0" stop-color="#1a1a1a"/><stop offset="1" stop-color="#ffffff"/></linearGradient><linearGradient x1="247.72226" y1="223.37133" x2="247.72226" y2="250.42085" gradientUnits="userSpaceOnUse" id="color-38"><stop offset="0" stop-color="#1a1a1a"/><stop offset="1" stop-color="#ffffff"/></linearGradient><linearGradient x1="240.64153" y1="225.25023" x2="240.64153" y2="252.29975" gradientUnits="userSpaceOnUse" id="color-39"><stop offset="0" stop-color="#1a1a1a"/><stop offset="1" stop-color="#ffffff"/></linearGradient></defs><g transform="translate(-148.07218,-88.07218)"><g data-paper-data="{&quot;isPaintingLayer&quot;:true}" fill-rule="nonzero" stroke-linecap="butt" stroke-linejoin="miter" stroke-miterlimit="10" stroke-dasharray="" stroke-dashoffset="0" style="mix-blend-mode: normal"><path d="M157.07218,180c0,-45.79977 37.12805,-82.92782 82.92782,-82.92782c45.79977,0 82.92782,37.12805 82.92782,82.92782c0,45.79977 -37.12805,82.92782 -82.92782,82.92782c-45.79977,0 -82.92782,-37.12805 -82.92782,-82.92782z" fill="#000000" stroke="#000000" stroke-width="18"/><path d="M240,97.37344c45.79977,0 82.92782,37.12805 82.92782,82.92782c0,45.79977 -37.12805,82.92782 -82.92782,82.92782c-45.79977,0 -82.92782,-37.12805 -82.92782,-82.92782c0,-45.79977 37.12805,-82.92782 82.92782,-82.92782z" data-paper-data="{&quot;index&quot;:null}" fill="#2e2e2e" stroke="none" stroke-width="NaN"/><path d="M241.4295,95.91207c83.20982,-3.3314 81.9862,89.51916 81.9862,89.51916c0,0 -43.25718,28.06495 -85.04447,27.76552c-41.1354,-0.29477 -81.75279,-33.41524 -81.75279,-33.41524c0,0 -0.54464,-80.45212 84.81106,-83.86944z" data-paper-data="{&quot;index&quot;:null}" fill="url(#color-1)" stroke="none" stroke-width="NaN"/><path d="M171.64214,194.14754c0,0 37.65355,31.89106 67.89493,31.25145c33.09198,-0.6999 69.89127,-30.66748 69.89127,-30.66748c0,0 -66.79701,100.96871 -72.08505,100.94603c-10.05303,-0.6456 -65.70113,-101.53 -65.70113,-101.53z" fill="#000000" stroke="none" stroke-width="NaN"/><path d="M249.95624,157.21095c0,-16.07869 11.64233,-29.11303 26.00387,-29.11303c14.36154,0 26.00387,13.03435 26.00387,29.11303c0,16.07869 -11.64233,29.11303 -26.00387,29.11303c-14.36154,0 -26.00387,-13.03435 -26.00387,-29.11303z" fill="#000000" stroke="none" stroke-width="0"/><g data-paper-data="{&quot;index&quot;:null}" stroke="none" stroke-width="0"><path d="M241.68886,273.54948c0,0 0.54602,3.08825 1.97659,6.48989c0.94404,2.24478 2.87329,3.1481 3.03547,6.27966c0.1205,2.32678 -1.52863,3.29327 -2.96408,3.72649c-2.06962,0.6246 -4.47796,0.09444 -5.61417,-2.67983c-1.336,-3.26208 -0.11416,-3.92126 -0.47249,-6.12164c-0.55391,-3.40136 -1.91598,-6.67006 -1.91598,-6.67006l-0.44633,-13.67217z" fill="url(#color-2)"/><path d="M247.73885,266.27918c0,0 0.54602,3.08825 1.97659,6.48989c0.94404,2.24478 2.87328,3.1481 3.03546,6.27966c0.1205,2.32678 -1.52863,3.29327 -2.96408,3.72649c-2.06962,0.6246 -4.47795,0.09444 -5.61417,-2.67982c-1.336,-3.26209 -0.11415,-3.92127 -0.47248,-6.12164c-0.55391,-3.40135 -1.91598,-6.67006 -1.91598,-6.67006l-0.44634,-13.67217z" fill="url(#color-3)"/><path d="M253.02156,258.81467c0,0 0.54602,3.08825 1.97659,6.48989c0.94404,2.24478 2.87328,3.1481 3.03546,6.27966c0.1205,2.32678 -1.52863,3.29327 -2.96408,3.72649c-2.06962,0.6246 -4.47795,0.09444 -5.61417,-2.67982c-1.336,-3.26209 -0.11416,-3.92127 -0.47249,-6.12164c-0.55391,-3.40135 -1.91598,-6.67006 -1.91598,-6.67006l-0.44634,-13.67217z" fill="url(#color-4)"/><path d="M258.40295,252.94519c0,0 0.54602,3.08825 1.97659,6.48989c0.94405,2.24478 2.87329,3.1481 3.03547,6.27966c0.1205,2.32678 -1.52863,3.29327 -2.96407,3.72649c-2.06962,0.6246 -4.47796,0.09444 -5.61417,-2.67983c-1.336,-3.26208 -0.11416,-3.92126 -0.47249,-6.12164c-0.55391,-3.40136 -1.91598,-6.67006 -1.91598,-6.67006l-0.44633,-13.67217z" fill="url(#color-5)"/><path d="M264.05177,246.51538c0,0 0.54602,3.08825 1.97659,6.48989c0.94405,2.24478 2.87329,3.14811 3.03547,6.27967c0.1205,2.32678 -1.52863,3.29327 -2.96407,3.72649c-2.06962,0.6246 -4.47796,0.09444 -5.61417,-2.67982c-1.336,-3.26208 -0.11415,-3.92127 -0.47249,-6.12164c-0.55391,-3.40136 -1.91598,-6.67006 -1.91598,-6.67006l-0.44633,-13.67217z" fill="url(#color-6)"/><path d="M269.49365,240.15879c0,0 0.54602,3.08825 1.97659,6.48989c0.94405,2.24478 2.87329,3.1481 3.03547,6.27966c0.1205,2.32678 -1.52863,3.29327 -2.96408,3.72649c-2.06962,0.6246 -4.47796,0.09444 -5.61417,-2.67982c-1.336,-3.26209 -0.11416,-3.92127 -0.47249,-6.12164c-0.55391,-3.40135 -1.91598,-6.67006 -1.91598,-6.67006l-0.44633,-13.67217z" fill="url(#color-7)"/><path d="M275.74097,236.07856c0,0 0.54602,3.08825 1.97659,6.48989c0.94405,2.24479 2.87328,3.14811 3.03546,6.27966c0.1205,2.32678 -1.52864,3.29327 -2.96408,3.72649c-2.06962,0.6246 -4.47795,0.09444 -5.61417,-2.67982c-1.336,-3.26209 -0.11415,-3.92127 -0.47249,-6.12164c-0.55391,-3.40135 -1.91598,-6.67006 -1.91598,-6.67006l-0.44633,-13.67217z" fill="url(#color-8)"/><path d="M281.90234,231.09734c0,0 0.54602,3.08825 1.97659,6.48989c0.94405,2.24479 2.87328,3.14811 3.03546,6.27966c0.1205,2.32679 -1.52863,3.29328 -2.96408,3.72649c-2.06962,0.6246 -4.47795,0.09444 -5.61417,-2.67983c-1.336,-3.26209 -0.11415,-3.92126 -0.47249,-6.12164c-0.55391,-3.40135 -1.91598,-6.67006 -1.91598,-6.67006l-0.44633,-13.67217z" fill="url(#color-9)"/><path d="M288.28337,226.73695c0,0 0.54602,3.08825 1.97659,6.48989c0.94404,2.24479 2.87329,3.14811 3.03547,6.27966c0.1205,2.32679 -1.52863,3.29327 -2.96408,3.72649c-2.06962,0.62461 -4.47796,0.09444 -5.61417,-2.67982c-1.336,-3.26209 -0.11415,-3.92126 -0.47249,-6.12164c-0.55391,-3.40135 -1.91598,-6.67006 -1.91598,-6.67006l-0.44633,-13.67217z" fill="url(#color-10)"/></g><path d="M255.7308,157.1888c0,-12.6707 9.17467,-22.94233 20.49219,-22.94233c11.31752,0 20.49218,10.27163 20.49218,22.94233c0,12.6707 -9.17466,22.94234 -20.49218,22.94234c-11.31752,0 -20.49219,-10.27163 -20.49219,-22.94234z" fill="url(#color-11)" stroke="none" stroke-width="0"/><path d="M179.13243,157.04984c0,-16.07869 11.64233,-29.11303 26.00388,-29.11303c14.36155,0 26.00387,13.03434 26.00387,29.11303c0,16.07869 -11.64232,29.11303 -26.00387,29.11303c-14.36155,0 -26.00388,-13.03435 -26.00388,-29.11303z" fill="#000000" stroke="none" stroke-width="0"/><g data-paper-data="{&quot;index&quot;:null}" stroke="none" stroke-width="0"><path d="M242.55002,267.78537l-0.44633,13.67217c0,0 -1.36207,3.2687 -1.91598,6.67006c-0.35833,2.20038 0.86352,2.85956 -0.47249,6.12164c-1.13621,2.77427 -3.54455,3.30443 -5.61417,2.67982c-1.43544,-0.43322 -3.08458,-1.39971 -2.96408,-3.72649c0.16218,-3.13155 2.09142,-4.03487 3.03547,-6.27966c1.43056,-3.40164 1.97659,-6.48989 1.97659,-6.48989z" fill="url(#color-12)"/><path d="M236.50004,260.51507l-0.44634,13.67217c0,0 -1.36207,3.26871 -1.91598,6.67006c-0.35833,2.20038 0.86352,2.85956 -0.47248,6.12164c-1.13621,2.77427 -3.54455,3.30443 -5.61417,2.67982c-1.43544,-0.43322 -3.08458,-1.39971 -2.96408,-3.72649c0.16218,-3.13155 2.09142,-4.03487 3.03546,-6.27966c1.43056,-3.40164 1.97659,-6.48989 1.97659,-6.48989z" fill="url(#color-13)"/><path d="M231.21732,253.05056l-0.44634,13.67217c0,0 -1.36207,3.2687 -1.91598,6.67006c-0.35833,2.20038 0.86352,2.85956 -0.47249,6.12164c-1.13621,2.77427 -3.54455,3.30443 -5.61417,2.67982c-1.43544,-0.43322 -3.08458,-1.39971 -2.96408,-3.72649c0.16218,-3.13155 2.09142,-4.03487 3.03546,-6.27966c1.43056,-3.40164 1.97659,-6.48989 1.97659,-6.48989z" fill="url(#color-14)"/><path d="M225.83594,247.18108l-0.44633,13.67217c0,0 -1.36207,3.2687 -1.91598,6.67006c-0.35833,2.20038 0.86352,2.85956 -0.47249,6.12164c-1.13621,2.77427 -3.54455,3.30443 -5.61417,2.67982c-1.43544,-0.43322 -3.08457,-1.39971 -2.96407,-3.72649c0.16218,-3.13155 2.09142,-4.03487 3.03546,-6.27966c1.43056,-3.40164 1.97659,-6.48989 1.97659,-6.48989z" fill="url(#color-15)"/><path d="M220.18712,240.75127l-0.44634,13.67217c0,0 -1.36207,3.26871 -1.91598,6.67006c-0.35833,2.20038 0.86352,2.85956 -0.47249,6.12164c-1.13621,2.77427 -3.54455,3.30442 -5.61417,2.67982c-1.43544,-0.43322 -3.08457,-1.3997 -2.96407,-3.72649c0.16218,-3.13155 2.09142,-4.03488 3.03546,-6.27967c1.43056,-3.40164 1.97659,-6.48989 1.97659,-6.48989z" fill="url(#color-16)"/><path d="M214.74523,234.39468l-0.44633,13.67217c0,0 -1.36207,3.26871 -1.91598,6.67006c-0.35833,2.20037 0.86352,2.85955 -0.47249,6.12164c-1.13621,2.77427 -3.54455,3.30443 -5.61417,2.67982c-1.43544,-0.43322 -3.08458,-1.3997 -2.96408,-3.72649c0.16218,-3.13155 2.09142,-4.03487 3.03547,-6.27966c1.43056,-3.40165 1.97659,-6.48989 1.97659,-6.48989z" fill="url(#color-17)"/><path d="M208.49792,230.31445l-0.44633,13.67217c0,0 -1.36207,3.26871 -1.91598,6.67006c-0.35833,2.20038 0.86352,2.85956 -0.47249,6.12164c-1.13621,2.77427 -3.54454,3.30443 -5.61416,2.67982c-1.43544,-0.43322 -3.08458,-1.39971 -2.96408,-3.72649c0.16218,-3.13155 2.09142,-4.03488 3.03546,-6.27966c1.43056,-3.40165 1.97659,-6.48989 1.97659,-6.48989z" fill="url(#color-18)"/><path d="M202.33655,225.33323l-0.44633,13.67217c0,0 -1.36207,3.26871 -1.91598,6.67006c-0.35833,2.20038 0.86352,2.85955 -0.47249,6.12164c-1.13621,2.77427 -3.54454,3.30443 -5.61416,2.67983c-1.43544,-0.43321 -3.08458,-1.39971 -2.96408,-3.72649c0.16218,-3.13155 2.09142,-4.03488 3.03546,-6.27966c1.43056,-3.40165 1.97659,-6.48989 1.97659,-6.48989z" fill="url(#color-19)"/><path d="M195.95552,220.97284l-0.44634,13.67217c0,0 -1.36206,3.26871 -1.91597,6.67006c-0.35833,2.20038 0.86352,2.85955 -0.47249,6.12164c-1.13621,2.77427 -3.54455,3.30443 -5.61417,2.67982c-1.43544,-0.43321 -3.08458,-1.3997 -2.96408,-3.72649c0.16218,-3.13155 2.09142,-4.03488 3.03547,-6.27966c1.43056,-3.40165 1.97659,-6.48989 1.97659,-6.48989z" fill="url(#color-20)"/></g><path d="M184.90699,157.02769c0,-12.6707 9.17466,-22.94233 20.49218,-22.94233c11.31752,0 20.49218,10.27163 20.49218,22.94233c0,12.6707 -9.17466,22.94234 -20.49218,22.94234c-11.31752,0 -20.49218,-10.27163 -20.49218,-22.94234z" fill="url(#color-21)" stroke="none" stroke-width="0"/><g stroke="none" stroke-width="0"><path d="M178.30531,226.65056l-3.92398,-12.35854c0,0 0.18365,-3.35156 -0.39681,-6.56614c-0.37551,-2.07954 -1.67576,-2.28227 -1.51331,-5.61967c0.13816,-2.83832 2.12261,-4.07353 4.16951,-4.16975c1.41968,-0.06673 3.19893,0.2755 3.82692,2.39281c0.8452,2.84963 -0.59315,4.26682 -0.727,6.57124c-0.20282,3.49201 0.28568,6.4243 0.28568,6.4243z" fill="url(#color-22)"/><path d="M186.01026,231.23441l-3.92398,-12.35854c0,0 0.18365,-3.35156 -0.39681,-6.56614c-0.37551,-2.07954 -1.67576,-2.28227 -1.51331,-5.61967c0.13816,-2.83832 2.12261,-4.07353 4.16951,-4.16975c1.41968,-0.06673 3.19893,0.2755 3.82692,2.39281c0.8452,2.84963 -0.59315,4.26682 -0.727,6.57124c-0.20282,3.49201 0.28568,6.4243 0.28568,6.4243z" fill="url(#color-23)"/><path d="M193.09099,236.23441l-3.92398,-12.35854c0,0 0.18365,-3.35156 -0.39681,-6.56614c-0.37551,-2.07954 -1.67576,-2.28227 -1.51331,-5.61967c0.13816,-2.83832 2.12261,-4.07353 4.16951,-4.16975c1.41968,-0.06673 3.19893,0.2755 3.82692,2.39281c0.8452,2.84963 -0.59315,4.26682 -0.727,6.57124c-0.20282,3.49201 0.28568,6.4243 0.28568,6.4243z" fill="url(#color-24)"/><path d="M199.75558,239.7779l-3.92398,-12.35854c0,0 0.18365,-3.35156 -0.39681,-6.56614c-0.37551,-2.07954 -1.67576,-2.28227 -1.51331,-5.61967c0.13816,-2.83832 2.12261,-4.07353 4.16951,-4.16975c1.41968,-0.06673 3.19893,0.2755 3.82692,2.39281c0.8452,2.84963 -0.59315,4.26682 -0.727,6.57124c-0.20282,3.49201 0.28568,6.4243 0.28568,6.4243z" fill="url(#color-25)"/><path d="M206.83631,243.73753l-3.92398,-12.35854c0,0 0.18365,-3.35156 -0.39681,-6.56614c-0.37551,-2.07954 -1.67576,-2.28226 -1.51331,-5.61967c0.13816,-2.83832 2.12261,-4.07354 4.16951,-4.16976c1.41968,-0.06673 3.19893,0.2755 3.82692,2.39281c0.8452,2.84963 -0.59315,4.26682 -0.727,6.57124c-0.20282,3.49201 0.28568,6.4243 0.28568,6.4243z" fill="url(#color-26)"/><path d="M213.70897,247.69717l-3.92398,-12.35854c0,0 0.18365,-3.35157 -0.39681,-6.56614c-0.37551,-2.07954 -1.67576,-2.28226 -1.51331,-5.61967c0.13816,-2.83832 2.12261,-4.07354 4.16951,-4.16976c1.41968,-0.06673 3.19893,0.2755 3.82692,2.39281c0.8452,2.84963 -0.59315,4.26682 -0.727,6.57124c-0.20282,3.49201 0.28568,6.4243 0.28568,6.4243z" fill="url(#color-27)"/><path d="M220.58163,249.368l-3.92398,-12.35854c0,0 0.18365,-3.35156 -0.39681,-6.56614c-0.37551,-2.07954 -1.67576,-2.28227 -1.51331,-5.61967c0.13816,-2.83832 2.12261,-4.07354 4.16951,-4.16976c1.41968,-0.06673 3.19893,0.2755 3.82692,2.39281c0.8452,2.84963 -0.59315,4.26682 -0.727,6.57124c-0.20282,3.49201 0.28568,6.4243 0.28568,6.4243z" fill="url(#color-28)"/><path d="M227.66236,251.87112l-3.92398,-12.35854c0,0 0.18365,-3.35156 -0.39681,-6.56614c-0.37551,-2.07954 -1.67576,-2.28227 -1.51331,-5.61967c0.13816,-2.83832 2.12261,-4.07353 4.16951,-4.16975c1.41968,-0.06673 3.19893,0.2755 3.82692,2.39281c0.8452,2.84963 -0.59315,4.26682 -0.727,6.57124c-0.20282,3.49201 0.28568,6.4243 0.28568,6.4243z" fill="url(#color-29)"/><path d="M234.74309,253.75002l-3.92398,-12.35854c0,0 0.18365,-3.35157 -0.39681,-6.56614c-0.37551,-2.07954 -1.67576,-2.28226 -1.51331,-5.61967c0.13816,-2.83832 2.12261,-4.07354 4.16951,-4.16976c1.41968,-0.06673 3.19893,0.2755 3.82692,2.39281c0.8452,2.84963 -0.59315,4.26682 -0.727,6.57124c-0.20282,3.49201 0.28568,6.4243 0.28568,6.4243z" fill="url(#color-30)"/></g><g data-paper-data="{&quot;index&quot;:null}" stroke="none" stroke-width="0"><path d="M293.69371,213.53911c0,0 0.4885,-2.93229 0.28568,-6.4243c-0.13385,-2.30442 -1.5722,-3.72161 -0.727,-6.57124c0.62799,-2.11731 2.40723,-2.45954 3.82692,-2.39281c2.0469,0.09622 4.03135,1.33143 4.16951,4.16975c0.16245,3.3374 -1.13781,3.54013 -1.51331,5.61967c-0.58045,3.21457 -0.3968,6.56614 -0.3968,6.56614l-3.92398,12.35854z" fill="url(#color-31)"/><path d="M285.98876,218.12297c0,0 0.4885,-2.93229 0.28568,-6.4243c-0.13385,-2.30442 -1.5722,-3.72161 -0.727,-6.57124c0.62799,-2.11731 2.40723,-2.45954 3.82692,-2.39281c2.0469,0.09622 4.03135,1.33143 4.16951,4.16975c0.16245,3.3374 -1.13781,3.54013 -1.51331,5.61967c-0.58045,3.21457 -0.3968,6.56614 -0.3968,6.56614l-3.92398,12.35854z" fill="url(#color-32)"/><path d="M278.90803,223.12297c0,0 0.48851,-2.93229 0.28568,-6.4243c-0.13385,-2.30442 -1.5722,-3.72161 -0.727,-6.57124c0.62799,-2.11731 2.40724,-2.45954 3.82692,-2.39281c2.0469,0.09622 4.03135,1.33143 4.16951,4.16975c0.16245,3.3374 -1.13781,3.54013 -1.51331,5.61967c-0.58045,3.21457 -0.3968,6.56614 -0.3968,6.56614l-3.92398,12.35854z" fill="url(#color-33)"/><path d="M272.24344,226.66645c0,0 0.4885,-2.93229 0.28568,-6.4243c-0.13385,-2.30442 -1.5722,-3.72161 -0.727,-6.57124c0.62799,-2.11731 2.40723,-2.45954 3.82692,-2.39281c2.0469,0.09622 4.03135,1.33143 4.16951,4.16975c0.16245,3.3374 -1.13781,3.54013 -1.51331,5.61967c-0.58045,3.21457 -0.3968,6.56614 -0.3968,6.56614l-3.92398,12.35854z" fill="url(#color-34)"/><path d="M265.16271,230.62609c0,0 0.48851,-2.93229 0.28568,-6.4243c-0.13385,-2.30442 -1.5722,-3.72161 -0.727,-6.57124c0.62799,-2.11731 2.40724,-2.45954 3.82692,-2.39281c2.0469,0.09622 4.03135,1.33143 4.16951,4.16976c0.16245,3.3374 -1.13781,3.54012 -1.51331,5.61967c-0.58045,3.21457 -0.39681,6.56614 -0.39681,6.56614l-3.92398,12.35854z" fill="url(#color-35)"/><path d="M258.29005,234.58572c0,0 0.48851,-2.93229 0.28568,-6.4243c-0.13385,-2.30442 -1.5722,-3.72161 -0.727,-6.57124c0.62799,-2.11731 2.40724,-2.45954 3.82692,-2.39281c2.0469,0.09622 4.03135,1.33143 4.16951,4.16976c0.16245,3.3374 -1.13781,3.54012 -1.51331,5.61967c-0.58045,3.21457 -0.3968,6.56614 -0.3968,6.56614l-3.92398,12.35854z" fill="url(#color-36)"/><path d="M251.41739,236.25655c0,0 0.4885,-2.93229 0.28568,-6.4243c-0.13385,-2.30442 -1.5722,-3.72161 -0.727,-6.57124c0.62799,-2.11731 2.40724,-2.45954 3.82692,-2.39281c2.04689,0.09622 4.03135,1.33143 4.16951,4.16976c0.16245,3.3374 -1.13781,3.54013 -1.51331,5.61967c-0.58045,3.21457 -0.3968,6.56614 -0.3968,6.56614l-3.92398,12.35854z" fill="url(#color-37)"/><path d="M244.33666,238.75967c0,0 0.48851,-2.93229 0.28568,-6.4243c-0.13385,-2.30442 -1.5722,-3.72161 -0.727,-6.57124c0.62799,-2.11731 2.40724,-2.45954 3.82692,-2.39281c2.0469,0.09622 4.03135,1.33143 4.16951,4.16975c0.16245,3.3374 -1.13781,3.54013 -1.51331,5.61967c-0.58046,3.21457 -0.39681,6.56614 -0.39681,6.56614l-3.92398,12.35854z" fill="url(#color-38)"/><path d="M237.25593,240.63857c0,0 0.4885,-2.93229 0.28568,-6.4243c-0.13385,-2.30442 -1.5722,-3.72161 -0.727,-6.57124c0.62799,-2.11731 2.40724,-2.45954 3.82692,-2.39281c2.0469,0.09622 4.03135,1.33143 4.16951,4.16976c0.16245,3.3374 -1.1378,3.54012 -1.51331,5.61967c-0.58046,3.21457 -0.39681,6.56614 -0.39681,6.56614l-3.92398,12.35854z" fill="url(#color-39)"/></g></g></g></svg>