<svg version="1.1" xmlns="http://www.w3.org/2000/svg" xmlns:xlink="http://www.w3.org/1999/xlink" width="183.85564" height="183.85564" viewBox="0,0,183.85564,183.85564"><g transform="translate(-148.07218,-88.07218)"><g data-paper-data="{&quot;isPaintingLayer&quot;:true}" fill-rule="nonzero" stroke-linecap="butt" stroke-linejoin="miter" stroke-miterlimit="10" stroke-dasharray="" stroke-dashoffset="0" style="mix-blend-mode: normal"><path d="M157.07218,180c0,-45.79977 37.12805,-82.92782 82.92782,-82.92782c45.79977,0 82.92782,37.12805 82.92782,82.92782c0,45.79977 -37.12805,82.92782 -82.92782,82.92782c-45.79977,0 -82.92782,-37.12805 -82.92782,-82.92782z" fill="#000000" stroke="#000000" stroke-width="18"/><path d="M157.07218,180c0,-45.79977 37.12805,-82.92782 82.92782,-82.92782c45.79977,0 82.92782,37.12805 82.92782,82.92782c0,45.79977 -37.12805,82.92782 -82.92782,82.92782c-45.79977,0 -82.92782,-37.12805 -82.92782,-82.92782z" fill="#ebff00" stroke="none" stroke-width="NaN"/><path d="M157.24618,180.20587c0,0 40.30352,-17.42681 81.43892,-17.72158c41.78729,-0.29943 84.7306,17.72158 84.7306,17.72158c0,0 -0.47694,86.28316 -82.92782,82.92782c-82.42842,-3.35442 -83.24169,-82.92782 -83.24169,-82.92782z" fill="#ffef00" stroke="none" stroke-width="NaN"/><path d="M240.19952,238.74604c-62.94763,-1.28963 -61.04261,-31.17929 -61.04261,-31.17929c0,0 30.27442,1.25236 60.5158,0.76088c33.09198,-0.53781 65.99824,-1.1173 65.99824,-1.1173c0,0 -5.64722,32.76135 -65.47142,31.53571z" fill="#000000" stroke="none" stroke-width="NaN"/><path d="M249.95624,157.21095c0,-16.07869 11.64233,-29.11303 26.00387,-29.11303c14.36154,0 26.00387,13.03435 26.00387,29.11303c0,16.07869 -11.64233,29.11303 -26.00387,29.11303c-14.36154,0 -26.00387,-13.03435 -26.00387,-29.11303z" fill="#000000" stroke="none" stroke-width="0"/><path d="M255.7308,157.1888c0,-12.6707 9.17467,-22.94233 20.49219,-22.94233c11.31752,0 20.49218,10.27163 20.49218,22.94233c0,12.6707 -9.17466,22.94234 -20.49218,22.94234c-11.31752,0 -20.49219,-10.27163 -20.49219,-22.94234z" fill="#ffffff" stroke="none" stroke-width="0"/><path d="M265.45923,157.84384c0,-6.4929 4.7014,-11.75642 10.50088,-11.75642c5.79948,0 10.50088,5.26352 10.50088,11.75642c0,6.4929 -4.7014,11.75642 -10.50088,11.75642c-5.79948,0 -10.50088,-5.26352 -10.50088,-11.75642z" fill="#000000" stroke="none" stroke-width="0"/><path d="M179.13243,157.04984c0,-16.07869 11.64233,-29.11303 26.00388,-29.11303c14.36155,0 26.00387,13.03434 26.00387,29.11303c0,16.07869 -11.64232,29.11303 -26.00387,29.11303c-14.36155,0 -26.00388,-13.03435 -26.00388,-29.11303z" fill="#000000" stroke="none" stroke-width="0"/><path d="M184.90699,157.02769c0,-12.6707 9.17466,-22.94233 20.49218,-22.94233c11.31752,0 20.49218,10.27163 20.49218,22.94233c0,12.6707 -9.17466,22.94234 -20.49218,22.94234c-11.31752,0 -20.49218,-10.27163 -20.49218,-22.94234z" fill="#ffffff" stroke="none" stroke-width="0"/><path d="M194.90381,157.68273c0,-6.32695 4.58124,-11.45594 10.23249,-11.45594c5.65125,0 10.23249,5.12899 10.23249,11.45594c0,6.32695 -4.58124,11.45595 -10.23249,11.45595c-5.65125,0 -10.23249,-5.129 -10.23249,-11.45595z" fill="#000000" stroke="none" stroke-width="0"/></g></g></svg>