<svg version="1.1" xmlns="http://www.w3.org/2000/svg" xmlns:xlink="http://www.w3.org/1999/xlink" width="183.85564" height="183.85564" viewBox="0,0,183.85564,183.85564"><g transform="translate(-148.07218,-88.07218)"><g data-paper-data="{&quot;isPaintingLayer&quot;:true}" fill-rule="nonzero" stroke-linejoin="miter" stroke-miterlimit="10" stroke-dasharray="" stroke-dashoffset="0" style="mix-blend-mode: normal"><path d="M157.07218,180c0,-45.79977 37.12805,-82.92782 82.92782,-82.92782c45.79977,0 82.92782,37.12805 82.92782,82.92782c0,45.79977 -37.12805,82.92782 -82.92782,82.92782c-45.79977,0 -82.92782,-37.12805 -82.92782,-82.92782z" fill="#000000" stroke="#000000" stroke-width="18" stroke-linecap="butt"/><path d="M157.07218,180c0,-45.79977 37.12805,-82.92782 82.92782,-82.92782c45.79977,0 82.92782,37.12805 82.92782,82.92782c0,45.79977 -37.12805,82.92782 -82.92782,82.92782c-45.79977,0 -82.92782,-37.12805 -82.92782,-82.92782z" fill="#7e0000" stroke="none" stroke-width="NaN" stroke-linecap="butt"/><path d="M157.24618,180.20587c0,0 40.30352,-17.42681 81.43892,-17.72158c41.78729,-0.29943 84.7306,17.72158 84.7306,17.72158c0,0 -1.03656,81.17994 -82.92782,82.92782c-83.94161,-3.35442 -83.24169,-82.92782 -83.24169,-82.92782z" fill="#3f0000" stroke="none" stroke-width="NaN" stroke-linecap="butt"/><path d="M249.95624,157.21095c0,-16.07869 11.64233,-29.11303 26.00387,-29.11303c14.36154,0 26.00387,13.03435 26.00387,29.11303c0,16.07869 -11.64233,29.11303 -26.00387,29.11303c-14.36154,0 -26.00387,-13.03435 -26.00387,-29.11303z" fill="#000000" stroke="none" stroke-width="0" stroke-linecap="butt"/><path d="M255.7308,157.1888c0,-12.6707 9.17467,-22.94233 20.49219,-22.94233c11.31752,0 20.49218,10.27163 20.49218,22.94233c0,12.6707 -9.17466,22.94234 -20.49218,22.94234c-11.31752,0 -20.49219,-10.27163 -20.49219,-22.94234z" fill="#ffffff" stroke="none" stroke-width="0" stroke-linecap="butt"/><path d="M267.77623,157.84384c0,-5.06025 3.66404,-9.16239 8.18388,-9.16239c4.51983,0 8.18388,4.10213 8.18388,9.16239c0,5.06025 -3.66404,9.16239 -8.18388,9.16239c-4.51983,0 -8.18388,-4.10213 -8.18388,-9.16239z" fill="#000000" stroke="none" stroke-width="0" stroke-linecap="butt"/><path d="M179.13243,157.04984c0,-16.07869 11.64233,-29.11303 26.00388,-29.11303c14.36155,0 26.00387,13.03434 26.00387,29.11303c0,16.07869 -11.64232,29.11303 -26.00387,29.11303c-14.36155,0 -26.00388,-13.03435 -26.00388,-29.11303z" fill="#000000" stroke="none" stroke-width="0" stroke-linecap="butt"/><path d="M184.90699,157.02769c0,-12.6707 9.17466,-22.94233 20.49218,-22.94233c11.31752,0 20.49218,10.27163 20.49218,22.94233c0,12.6707 -9.17466,22.94234 -20.49218,22.94234c-11.31752,0 -20.49218,-10.27163 -20.49218,-22.94234z" fill="#ffffff" stroke="none" stroke-width="0" stroke-linecap="butt"/><path d="M196.84934,157.68273c0,-5.12399 3.7102,-9.2778 8.28696,-9.2778c4.57677,0 8.28696,4.1538 8.28696,9.2778c0,5.12399 -3.7102,9.27781 -8.28696,9.27781c-4.57677,0 -8.28696,-4.15381 -8.28696,-9.27781z" fill="#000000" stroke="none" stroke-width="0" stroke-linecap="butt"/><path d="M294.83568,226.876c0,3.85384 -26.3162,-9.09184 -57.14691,-9.09184c-30.83071,0 -53.85246,14.02653 -53.85246,10.17269c0,-3.85384 22.49695,-28.48437 53.32766,-28.48437c30.83071,0 57.67171,23.54968 57.67171,27.40352z" fill="#000000" stroke="none" stroke-width="0" stroke-linecap="butt"/><path d="M197.66176,114.30495l27.23735,14.69952" fill="none" stroke="#000000" stroke-width="7.5" stroke-linecap="round"/><path d="M277.24023,114.7654l-27.23736,14.69952" data-paper-data="{&quot;index&quot;:null}" fill="none" stroke="#000000" stroke-width="7.5" stroke-linecap="round"/></g></g></svg>