<svg version="1.1" xmlns="http://www.w3.org/2000/svg" xmlns:xlink="http://www.w3.org/1999/xlink" width="183.85564" height="183.85564" viewBox="0,0,183.85564,183.85564"><g transform="translate(-148.07218,-88.07218)"><g data-paper-data="{&quot;isPaintingLayer&quot;:true}" fill-rule="nonzero" stroke-linejoin="miter" stroke-miterlimit="10" stroke-dasharray="" stroke-dashoffset="0" style="mix-blend-mode: normal"><path d="M157.07218,180c0,-45.79977 37.12805,-82.92782 82.92782,-82.92782c45.79977,0 82.92782,37.12805 82.92782,82.92782c0,45.79977 -37.12805,82.92782 -82.92782,82.92782c-45.79977,0 -82.92782,-37.12805 -82.92782,-82.92782z" fill="#000000" stroke="#000000" stroke-width="18" stroke-linecap="butt"/><path d="M157.07218,180c0,-45.79977 37.12805,-82.92782 82.92782,-82.92782c45.79977,0 82.92782,37.12805 82.92782,82.92782c0,45.79977 -37.12805,82.92782 -82.92782,82.92782c-45.79977,0 -82.92782,-37.12805 -82.92782,-82.92782z" fill="#a300be" stroke="none" stroke-width="NaN" stroke-linecap="butt"/><path d="M157.24618,180.20587c0,0 40.30352,-17.42681 81.43892,-17.72158c41.78729,-0.29943 84.7306,17.72158 84.7306,17.72158c0,0 -1.03656,81.17994 -82.92782,82.92782c-83.94161,-3.35442 -83.24169,-82.92782 -83.24169,-82.92782z" fill="#630074" stroke="none" stroke-width="NaN" stroke-linecap="butt"/><path d="M249.95624,157.21095c0,-16.07869 11.64233,-29.11303 26.00387,-29.11303c14.36154,0 26.00387,13.03435 26.00387,29.11303c0,16.07869 -11.64233,29.11303 -26.00387,29.11303c-14.36154,0 -26.00387,-13.03435 -26.00387,-29.11303z" fill="#000000" stroke="none" stroke-width="0" stroke-linecap="butt"/><path d="M255.7308,157.1888c0,-12.6707 9.17467,-22.94233 20.49219,-22.94233c11.31752,0 20.49218,10.27163 20.49218,22.94233c0,12.6707 -9.17466,22.94234 -20.49218,22.94234c-11.31752,0 -20.49219,-10.27163 -20.49219,-22.94234z" fill="#ffffff" stroke="none" stroke-width="0" stroke-linecap="butt"/><path d="M269.90554,157.84384c0,-3.74366 2.71072,-6.77849 6.05457,-6.77849c3.34385,0 6.05457,3.03483 6.05457,6.77849c0,3.74366 -2.71072,6.77849 -6.05457,6.77849c-3.34385,0 -6.05457,-3.03483 -6.05457,-6.77849z" fill="#000000" stroke="none" stroke-width="0" stroke-linecap="butt"/><path d="M179.13243,157.04984c0,-16.07869 11.64233,-29.11303 26.00388,-29.11303c14.36155,0 26.00387,13.03434 26.00387,29.11303c0,16.07869 -11.64232,29.11303 -26.00387,29.11303c-14.36155,0 -26.00388,-13.03435 -26.00388,-29.11303z" fill="#000000" stroke="none" stroke-width="0" stroke-linecap="butt"/><path d="M184.90699,157.02769c0,-12.6707 9.17466,-22.94233 20.49218,-22.94233c11.31752,0 20.49218,10.27163 20.49218,22.94233c0,12.6707 -9.17466,22.94234 -20.49218,22.94234c-11.31752,0 -20.49218,-10.27163 -20.49218,-22.94234z" fill="#ffffff" stroke="none" stroke-width="0" stroke-linecap="butt"/><path d="M184.90699,157.02769c0,-12.6707 9.17466,-22.94233 20.49218,-22.94233c11.31752,0 20.49218,10.27163 20.49218,22.94233c0,12.6707 -9.17466,22.94234 -20.49218,22.94234c-11.31752,0 -20.49218,-10.27163 -20.49218,-22.94234z" fill="#ffffff" stroke="none" stroke-width="0" stroke-linecap="butt"/><path d="M199.78864,157.68273c0,-3.30656 2.39423,-5.98705 5.34766,-5.98705c2.95343,0 5.34766,2.68049 5.34766,5.98705c0,3.30656 -2.39423,5.98706 -5.34766,5.98706c-2.95343,0 -5.34766,-2.68049 -5.34766,-5.98706z" fill="#000000" stroke="none" stroke-width="0" stroke-linecap="butt"/><path d="M294.83568,226.876c0,3.85384 -24.96119,-4.44608 -55.7919,-4.44608c-30.83071,0 -55.20747,9.38077 -55.20747,5.52693c0,-3.85384 22.49695,-39.13091 53.32766,-39.13091c30.83071,0 57.67171,34.19622 57.67171,38.05006z" fill="#000000" stroke="none" stroke-width="0" stroke-linecap="butt"/><path d="M197.66176,114.30495l34.39956,15.47381" fill="none" stroke="#000000" stroke-width="7.5" stroke-linecap="round"/><path d="M277.24023,114.7654l-30.14096,16.44168" data-paper-data="{&quot;index&quot;:null}" fill="none" stroke="#000000" stroke-width="7.5" stroke-linecap="round"/></g></g></svg>