<svg version="1.1" xmlns="http://www.w3.org/2000/svg" xmlns:xlink="http://www.w3.org/1999/xlink" width="183.85564" height="183.85564" viewBox="0,0,183.85564,183.85564"><defs><linearGradient x1="240.33085" y1="97.07218" x2="240.33085" y2="197.72527" gradientUnits="userSpaceOnUse" id="color-1"><stop offset="0" stop-color="#000000"/><stop offset="1" stop-color="#000000" stop-opacity="0"/></linearGradient></defs><g transform="translate(-148.07218,-88.07218)"><g data-paper-data="{&quot;isPaintingLayer&quot;:true}" fill-rule="nonzero" stroke-linejoin="miter" stroke-miterlimit="10" stroke-dasharray="" stroke-dashoffset="0" style="mix-blend-mode: normal"><path d="M157.07218,180c0,-45.79977 37.12805,-82.92782 82.92782,-82.92782c45.79977,0 82.92782,37.12805 82.92782,82.92782c0,45.79977 -37.12805,82.92782 -82.92782,82.92782c-45.79977,0 -82.92782,-37.12805 -82.92782,-82.92782z" fill="#000000" stroke="#000000" stroke-width="18" stroke-linecap="butt"/><path d="M240,97.27805c45.79977,0 82.92782,37.12805 82.92782,82.92782c0,45.79977 -37.12805,82.92782 -82.92782,82.92782c-45.79977,0 -82.92782,-37.12805 -82.92782,-82.92782c0,-45.79977 37.12805,-82.92782 82.92782,-82.92782z" data-paper-data="{&quot;index&quot;:null}" fill="#350a3d" stroke="none" stroke-width="NaN" stroke-linecap="butt"/><path d="M157.24619,180c0,0 -0.69992,-79.5734 83.24169,-82.92782c81.89126,1.74788 82.92782,82.92782 82.92782,82.92782c0,0 -42.94331,18.02101 -84.7306,17.72158c-41.1354,-0.29477 -81.43892,-17.72158 -81.43892,-17.72158z" data-paper-data="{&quot;index&quot;:null}" fill="url(#color-1)" stroke="none" stroke-width="NaN" stroke-linecap="butt"/><path d="M249.95624,157.21095c0,-16.07869 11.64233,-29.11303 26.00387,-29.11303c14.36154,0 26.00387,13.03435 26.00387,29.11303c0,16.07869 -11.64233,29.11303 -26.00387,29.11303c-14.36154,0 -26.00387,-13.03435 -26.00387,-29.11303z" fill="#000000" stroke="none" stroke-width="0" stroke-linecap="butt"/><path d="M255.7308,157.1888c0,-12.6707 9.17467,-22.94233 20.49219,-22.94233c11.31752,0 20.49218,10.27163 20.49218,22.94233c0,12.6707 -9.17466,22.94234 -20.49218,22.94234c-11.31752,0 -20.49219,-10.27163 -20.49219,-22.94234z" fill="#ffffff" stroke="none" stroke-width="0" stroke-linecap="butt"/><path d="M271.37118,157.84384c0,-2.83743 2.05453,-5.13761 4.58893,-5.13761c2.5344,0 4.58893,2.30018 4.58893,5.13761c0,2.83743 -2.05453,5.13761 -4.58893,5.13761c-2.5344,0 -4.58893,-2.30018 -4.58893,-5.13761z" fill="#000000" stroke="none" stroke-width="0" stroke-linecap="butt"/><path d="M179.13243,157.04984c0,-16.07869 11.64233,-29.11303 26.00388,-29.11303c14.36155,0 26.00387,13.03434 26.00387,29.11303c0,16.07869 -11.64232,29.11303 -26.00387,29.11303c-14.36155,0 -26.00388,-13.03435 -26.00388,-29.11303z" fill="#000000" stroke="none" stroke-width="0" stroke-linecap="butt"/><path d="M184.90699,157.02769c0,-12.6707 9.17466,-22.94233 20.49218,-22.94233c11.31752,0 20.49218,10.27163 20.49218,22.94233c0,12.6707 -9.17466,22.94234 -20.49218,22.94234c-11.31752,0 -20.49218,-10.27163 -20.49218,-22.94234z" fill="#ffffff" stroke="none" stroke-width="0" stroke-linecap="butt"/><path d="M184.90699,157.02769c0,-12.6707 9.17466,-22.94233 20.49218,-22.94233c11.31752,0 20.49218,10.27163 20.49218,22.94233c0,12.6707 -9.17466,22.94234 -20.49218,22.94234c-11.31752,0 -20.49218,-10.27163 -20.49218,-22.94234z" fill="#ffffff" stroke="none" stroke-width="0" stroke-linecap="butt"/><path d="M201.46366,157.68273c0,-2.27086 1.6443,-4.11176 3.67264,-4.11176c2.02834,0 3.67264,1.84089 3.67264,4.11176c0,2.27086 -1.6443,4.11177 -3.67264,4.11177c-2.02834,0 -3.67264,-1.84089 -3.67264,-4.11177z" fill="#000000" stroke="none" stroke-width="0" stroke-linecap="butt"/><path d="M197.66176,114.30495l34.39956,15.47381" fill="none" stroke="#000000" stroke-width="7.5" stroke-linecap="round"/><path d="M277.24023,114.7654l-30.14096,16.44168" data-paper-data="{&quot;index&quot;:null}" fill="none" stroke="#000000" stroke-width="7.5" stroke-linecap="round"/><path d="M277.5577,211.36751c0,2.58924 -16.58205,4.68823 -37.03704,4.68823c-20.45499,0 -37.03704,-2.09899 -37.03704,-4.68823c0,-2.58924 16.58205,-4.68823 37.03704,-4.68823c20.45499,0 37.03704,2.09899 37.03704,4.68823z" fill="#000000" stroke="#000000" stroke-width="7.5" stroke-linecap="butt"/></g></g></svg>