<svg version="1.1" xmlns="http://www.w3.org/2000/svg" xmlns:xlink="http://www.w3.org/1999/xlink" width="183.85564" height="195.37334" viewBox="0,0,183.85564,195.37334"><defs><linearGradient x1="240.33095" y1="97.16757" x2="240.33095" y2="197.82066" gradientUnits="userSpaceOnUse" id="color-1"><stop offset="0" stop-color="#000000"/><stop offset="1" stop-color="#000000" stop-opacity="0.48723"/></linearGradient></defs><g transform="translate(-148.07218,-88.07218)"><g data-paper-data="{&quot;isPaintingLayer&quot;:true}" fill-rule="nonzero" stroke-linecap="butt" stroke-linejoin="miter" stroke-miterlimit="10" stroke-dasharray="" stroke-dashoffset="0" style="mix-blend-mode: normal"><path d="M157.07218,180c0,-45.79977 37.12805,-82.92782 82.92782,-82.92782c45.79977,0 82.92782,37.12805 82.92782,82.92782c0,45.79977 -37.12805,82.92782 -82.92782,82.92782c-45.79977,0 -82.92782,-37.12805 -82.92782,-82.92782z" fill="#000000" stroke="#000000" stroke-width="18"/><path d="M240,97.37344c45.79977,0 82.92782,37.12805 82.92782,82.92782c0,45.79977 -37.12805,82.92782 -82.92782,82.92782c-45.79977,0 -82.92782,-37.12805 -82.92782,-82.92782c0,-45.79977 37.12805,-82.92782 82.92782,-82.92782z" data-paper-data="{&quot;index&quot;:null}" fill="#00ff0d" stroke="none" stroke-width="NaN"/><path d="M239.54626,96.85369c71.50096,2.77454 86.52083,55.63467 82.81729,92.99186c-5.93034,59.81868 -42.89009,67.77651 -42.89009,67.77651l-82.99312,-2.82486c0,0 -38.20575,-31.47199 -39.90342,-70.79897c-1.67884,-38.89087 26.11751,-84.84901 82.96935,-87.14455z" data-paper-data="{&quot;index&quot;:null}" fill="url(#color-1)" stroke="none" stroke-width="NaN"/><path d="M171.64214,194.14754c0,0 37.65355,31.89106 67.89493,31.25145c33.09198,-0.6999 69.89127,-30.66748 69.89127,-30.66748c0,0 -16.19614,89.74859 -71.77118,88.70498c-49.63543,-0.93207 -66.015,-89.28895 -66.015,-89.28895z" fill="#000000" stroke="none" stroke-width="NaN"/><path d="M249.95624,157.21095c0,-16.07869 11.64233,-29.11303 26.00387,-29.11303c14.36154,0 26.00387,13.03435 26.00387,29.11303c0,16.07869 -11.64233,29.11303 -26.00387,29.11303c-14.36154,0 -26.00387,-13.03435 -26.00387,-29.11303z" fill="#000000" stroke="none" stroke-width="0"/><path d="M255.7308,157.1888c0,-12.6707 9.17467,-22.94233 20.49219,-22.94233c11.31752,0 20.49218,10.27163 20.49218,22.94233c0,12.6707 -9.17466,22.94234 -20.49218,22.94234c-11.31752,0 -20.49219,-10.27163 -20.49219,-22.94234z" fill="#ffffff" stroke="none" stroke-width="0"/><path d="M272.09146,157.84384c0,-2.39207 1.73206,-4.33121 3.86865,-4.33121c2.1366,0 3.86865,1.93915 3.86865,4.33121c0,2.39207 -1.73206,4.33121 -3.86865,4.33121c-2.1366,0 -3.86865,-1.93915 -3.86865,-4.33121z" fill="#000000" stroke="none" stroke-width="0"/><path d="M179.13243,157.04984c0,-16.07869 11.64233,-29.11303 26.00388,-29.11303c14.36155,0 26.00387,13.03434 26.00387,29.11303c0,16.07869 -11.64232,29.11303 -26.00387,29.11303c-14.36155,0 -26.00388,-13.03435 -26.00388,-29.11303z" fill="#000000" stroke="none" stroke-width="0"/><path d="M184.90699,157.02769c0,-12.6707 9.17466,-22.94233 20.49218,-22.94233c11.31752,0 20.49218,10.27163 20.49218,22.94233c0,12.6707 -9.17466,22.94234 -20.49218,22.94234c-11.31752,0 -20.49218,-10.27163 -20.49218,-22.94234z" fill="#ffffff" stroke="none" stroke-width="0"/><path d="M201.62592,157.68274c0,-2.17054 1.57165,-3.93009 3.51038,-3.93009c1.93873,0 3.51038,1.75956 3.51038,3.93009c0,2.17054 -1.57165,3.9301 -3.51038,3.9301c-1.93873,0 -3.51038,-1.75957 -3.51038,-3.9301z" fill="#000000" stroke="none" stroke-width="0"/></g></g></svg>